<?xml version="1.0" encoding="UTF-8"?>
<svg width="75px" height="70px" viewBox="0 0 75 70" version="1.1" xmlns="http://www.w3.org/2000/svg">
    <!-- Generator: Sketch 63.1 (92452) - https://sketch.com -->
    <title>Group 2</title>
    <desc>Created with Sketch.</desc>
    <defs>
        <linearGradient x1="50%" y1="34.9187078%" x2="50%" y2="100%" id="linearGradient-1">
            <stop stop-color="#EEEEEE" offset="0%"></stop>
            <stop stop-color="#BFBDBD" offset="100%"></stop>
        </linearGradient>
        <linearGradient x1="-73.3007648%" y1="50%" x2="74.5117188%" y2="50%" id="linearGradient-2">
            <stop stop-color="#00220E" offset="0.0501478041%"></stop>
            <stop stop-color="#FF8700" offset="100%"></stop>
        </linearGradient>
        <linearGradient x1="50%" y1="15.2660473%" x2="50%" y2="100%" id="linearGradient-3">
            <stop stop-color="#52B89D" offset="0%"></stop>
            <stop stop-color="#1F789B" offset="100%"></stop>
        </linearGradient>
    </defs>
    <g id="Behandlingskatalog" stroke="none" stroke-width="1" fill="none" fill-rule="evenodd">
        <g id="Behandlingsaktiviteter-Landingside" transform="translate(-126.000000, -35.000000)">
            <g id="Group-2" transform="translate(126.000000, 35.000000)">
                <rect id="Rectangle" fill="url(#linearGradient-1)" x="4.34210526" y="2.36619718" width="38.4868421" height="14.7887324"></rect>
                <path d="M43.4210526,67.0422535 L43.4210526,19.7183099 L61.644795,19.7183099 L61.9788905,19.7225819 C69.1962254,19.9073443 75,26.0618904 75,33.6371168 C75,37.4326361 73.5429928,40.8715011 71.1811987,43.3815055 C73.5434423,45.8901235 75,49.3285129 75,53.1234466 C75,60.698673 69.1962254,66.8532191 61.9788905,67.0379815 L61.644795,67.0422535 L43.4210526,67.0422535 Z M50.900277,58.851571 L61.3810462,58.851571 L61.6178504,58.846241 C64.4438168,58.7187679 66.6897507,56.3209238 66.6897507,53.3911159 C66.6897507,50.4613081 64.4438168,48.063464 61.6178504,47.9359909 L61.3810462,47.9306609 L50.900277,47.9306609 L50.900277,58.851571 Z M50.900277,38.8299025 L61.3810462,38.8299025 L61.6178504,38.8245729 C64.4438168,38.697111 66.6897507,36.2994767 66.6897507,33.3699252 C66.6897507,30.4403737 64.4438168,28.0427394 61.6178504,27.9152775 L61.3810462,27.9099479 L50.900277,27.9089924 L50.900277,38.8299025 Z" id="Shape" fill="url(#linearGradient-2)" fill-rule="nonzero"></path>
                <path d="M8.88157895,69.2112676 C8.32556915,69.2112676 7.81430851,69.0198536 7.41021634,68.6993862 C3.19777009,67.34586 0.125049547,63.4636169 0.00372493454,58.847167 L0,58.5633803 L0,10.6478873 C0,4.86329802 4.6093462,0.154110579 10.3549055,0.00370614304 L10.6383748,0 L42.6315789,0 C43.9396218,0 45,1.05938256 45,2.36619718 C45,3.61856119 44.0261457,4.64368292 42.7937356,4.72693548 L42.6315789,4.73239437 L10.6383748,4.73239437 C7.38029987,4.73239437 4.73684211,7.37960362 4.73684211,10.6478873 C4.73684211,13.8418918 7.26150812,16.4427318 10.4172095,16.559302 L10.6383748,16.5633803 L42.6315789,16.5633803 C43.88512,16.5633803 44.9112052,17.5363202 44.994536,18.7675731 L45,18.9295775 L45,66.8450704 C45,68.0974344 44.0261457,69.1225562 42.7937356,69.2058087 L42.6315789,69.2112676 L8.88157895,69.2112676 Z" id="Shape" fill="url(#linearGradient-3)" fill-rule="nonzero"></path>
            </g>
        </g>
    </g>
</svg>
