<?xml version="1.0" encoding="UTF-8"?>
<svg width="570px" height="532px" viewBox="0 0 570 532" version="1.1" xmlns="http://www.w3.org/2000/svg">
    <!-- Generator: Sketch 63.1 (92452) - https://sketch.com -->
    <title>Group 3</title>
    <desc>Created with Sketch.</desc>
    <defs>
        <linearGradient x1="50%" y1="0%" x2="50%" y2="100%" id="linearGradient-1">
            <stop stop-color="#64C4CB" offset="0%"></stop>
            <stop stop-color="#34929C" offset="100%"></stop>
        </linearGradient>
        <linearGradient x1="50%" y1="0%" x2="50%" y2="100%" id="linearGradient-2">
            <stop stop-color="#64C4CB" offset="0%"></stop>
            <stop stop-color="#34929C" offset="100%"></stop>
        </linearGradient>
        <linearGradient x1="36.2181886%" y1="67.595776%" x2="-23.6620509%" y2="67.595776%" id="linearGradient-3">
            <stop stop-color="#D9D9D9" offset="0%"></stop>
            <stop stop-color="#FFFFFF" offset="100%"></stop>
        </linearGradient>
        <linearGradient x1="36.2181886%" y1="67.595776%" x2="-23.6620509%" y2="67.595776%" id="linearGradient-4">
            <stop stop-color="#D9D9D9" offset="0%"></stop>
            <stop stop-color="#FFFFFF" offset="100%"></stop>
        </linearGradient>
        <linearGradient x1="52.8897051%" y1="44.3724066%" x2="47.1102949%" y2="61.1417272%" id="linearGradient-5">
            <stop stop-color="#EEEEEE" offset="0%"></stop>
            <stop stop-color="#FFFFFF" offset="100%"></stop>
        </linearGradient>
        <linearGradient x1="72.1389358%" y1="50%" x2="0%" y2="50%" id="linearGradient-6">
            <stop stop-color="#FFFFFF" offset="0%"></stop>
            <stop stop-color="#E8E7E7" offset="100%"></stop>
        </linearGradient>
        <linearGradient x1="182.560044%" y1="50%" x2="50%" y2="50%" id="linearGradient-7">
            <stop stop-color="#FFFFFF" offset="0%"></stop>
            <stop stop-color="#E8E7E7" offset="100%"></stop>
        </linearGradient>
        <linearGradient x1="-73.3007648%" y1="50%" x2="74.5117188%" y2="50%" id="linearGradient-8">
            <stop stop-color="#00220E" offset="0.0501478041%"></stop>
            <stop stop-color="#FF8700" offset="100%"></stop>
        </linearGradient>
        <linearGradient x1="72.1389358%" y1="50%" x2="0%" y2="50%" id="linearGradient-9">
            <stop stop-color="#FFFFFF" offset="0%"></stop>
            <stop stop-color="#E8E7E7" offset="100%"></stop>
        </linearGradient>
    </defs>
    <g id="Behandlingskatalog" stroke="none" stroke-width="1" fill="none" fill-rule="evenodd">
        <g id="Behandlingsaktiviteter-Landingside" transform="translate(-1196.000000, -361.000000)">
            <g id="Group-3" transform="translate(1196.000000, 361.000000)">
                <g id="Group-7">
                    <path d="M14.6083251,96.5349922 L204,16 L204,16 L204,375.253112 L22.2611166,452.533909 C14.1292339,455.991828 4.73384305,452.202832 1.27592383,444.070949 C0.433960391,442.09093 4.64487728e-14,439.961432 0,437.809833 L0,118.621106 C5.92666477e-15,108.995779 5.75057212,100.301573 14.6083251,96.5349922 Z" id="Rectangle" fill="url(#linearGradient-1)"></path>
                    <path d="M279,6 L502,6 L502,6 L502,365 L279,365 C265.745166,365 255,354.254834 255,341 L255,30 C255,16.745166 265.745166,6 279,6 Z" id="Rectangle-Copy-9" fill="url(#linearGradient-2)" transform="translate(378.500000, 185.500000) scale(-1, 1) translate(-378.500000, -185.500000) "></path>
                    <path d="M204,16.6824147 C204,9.5608049 213.666667,4.66666667 233,2 C252.333333,-0.666666667 262.333333,0.666666667 263,6 L263,365.317585 L204,376 L204,16.6824147 Z" id="Rectangle" fill="#4AAAB2"></path>
                    <path d="M29,137.795678 C62.4740975,123.944045 96.2329627,106.855563 130.276596,86.5302326 C164.320229,66.2049024 198.561364,42.6948248 233,16 L233,340.204322 C199.995178,367.720845 165.754043,392.069791 130.276596,413.251163 C94.7991482,434.432534 61.040283,450.682147 29,462 L29,137.795678 Z" id="Rectangle-Copy-10" fill="url(#linearGradient-3)"></path>
                    <path d="M72,143.803536 C98.5823715,129.268639 125.390882,111.337227 152.425532,90.0093023 C179.460182,68.6813774 206.651671,44.0116099 234,16 L234,356.196464 C207.790288,385.070303 180.598799,410.620319 152.425532,432.846512 C124.252265,455.072704 97.4437541,472.123867 72,484 L72,143.803536 Z" id="Rectangle-Copy-11" fill="url(#linearGradient-4)"></path>
                    <path d="M115,151.176817 C140.607716,134.902155 162.944286,115.936239 182.009709,94.2790698 C201.075132,72.6219001 218.405229,46.5288769 234,16 L234,375.823183 C220.038441,399.451916 202.708344,423.022483 182.009709,446.534884 C161.311073,470.047284 138.974504,491.535656 115,511 L115,151.176817 Z" id="Rectangle-Copy-18" fill="url(#linearGradient-5)"></path>
                    <rect id="Rectangle" fill="url(#linearGradient-6)" x="233" y="16" width="240" height="360"></rect>
                    <polygon id="Rectangle-Copy-19" fill="url(#linearGradient-7)" points="233 16 455 31.8159204 455 390 233 374.18408"></polygon>
                    <path d="M286,360 L286,46 L406.610802,46 L408.821957,46.0283454 C456.588685,47.2542657 495,88.0904122 495,138.352941 C495,163.536664 485.35704,186.353942 469.7259,203.00812 C485.360016,219.653099 495,242.467222 495,267.647059 C495,317.909588 456.588685,358.745734 408.821957,359.971655 L406.610802,360 L286,360 Z M335.379121,304.791209 L404.744345,304.791209 L406.311594,304.755844 C425.014782,303.910044 439.879121,288.000064 439.879121,268.56044 C439.879121,249.120816 425.014782,233.210835 406.311594,232.365036 L404.744345,232.32967 L335.379121,232.32967 L335.379121,304.791209 Z M335.379121,173.67033 L404.744345,173.67033 L406.311594,173.634968 C425.014782,172.789242 439.879121,156.880654 439.879121,137.44273 C439.879121,118.004807 425.014782,102.096218 406.311594,101.250493 L404.744345,101.215131 L335.379121,101.208791 L335.379121,173.67033 Z" id="Shape-Copy" fill="url(#linearGradient-8)" fill-rule="nonzero"></path>
                    <path d="M233,16 C246.460459,19.6464261 260.367743,27.8446243 274.721854,40.5945946 C289.075965,53.3445649 300.502014,73.4797 309,101 L309,532 C286.333333,482 271,448 263,430 C255,412 245,395.20612 233,379.61836 L233,16 Z" id="Rectangle-Copy-20" fill="url(#linearGradient-9)"></path>
                </g>
                <g id="X⚙️/⚙️status-icon/-check-circle" transform="translate(93.000000, 62.500000) rotate(-24.000000) translate(-93.000000, -62.500000) translate(73.000000, 41.000000)">
                    <g id="groiup">
                        <path d="M20,0 C8.97166667,0 0,8.90430769 0,19.8461538 C0,30.788 8.97166667,39.6923077 20,39.6923077 C31.0266667,39.6923077 40,30.788 40,19.8461538 C40,8.90430769 31.0266667,0 20,0 Z" id="Shape" fill="#1C6937" fill-rule="nonzero"></path>
                        <path d="M16.0665528,23.8839045 L26.8330352,14.2269065 C27.486724,13.639283 28.5146007,13.6701545 29.1273215,14.2995425 C29.7403381,14.9292344 29.7052368,15.9172066 29.0502534,16.5061954 L17.1342851,27.195075 C16.8309229,27.4653754 16.4353518,27.6120401 16.0291986,27.6120401 C15.6025605,27.6120401 15.1924195,27.4522356 14.8808859,27.1558627 L10.9098231,23.3392945 C10.2764358,22.7305491 10.2764358,21.7422915 10.9098231,21.1335461 C11.5432105,20.5248007 12.5714727,20.5248007 13.20486,21.1335461 L16.0665528,23.8839045 Z" id="Path" fill="#FFFFFF" fill-rule="nonzero"></path>
                    </g>
                </g>
                <g id="X⚙️/⚙️status-icon/-warning-circle" transform="translate(552.000000, 224.500000) rotate(36.000000) translate(-552.000000, -224.500000) translate(535.000000, 206.000000)">
                    <path d="M17.2901205,-0.00569230769 L16.98707,-0.00272233944 C12.4339214,0.0774668033 8.14834417,1.92627204 4.92122617,5.203632 C1.67045545,8.50475171 -0.0754109547,12.8260555 0.0029386807,17.3730769 C0.165551131,26.7834213 7.50528584,34.1548825 16.7121071,34.1548825 L17.012201,34.1519125 C26.5412906,33.9870793 34.1619014,26.1909126 33.9978107,16.7775983 C33.8351982,7.36725387 26.4954635,-0.00569230769 17.2901205,-0.00569230769 Z" id="Shape" fill="#FFA733" fill-rule="nonzero"></path>
                    <g id="Group" stroke-width="1" fill-rule="evenodd" transform="translate(14.875000, 7.115385)" fill="#3E3832">
                        <path d="M2.16348485,19.9228395 C2.15073556,19.9228395 2.13798627,19.9228395 2.12523697,19.9228395 C0.967176374,19.9228395 0.0194790749,18.992199 0.00035513839,17.8267638 C-0.02089368,16.6485216 0.914054328,15.6751911 2.0869891,15.6559807 C2.09973839,15.6559807 2.11248768,15.6538462 2.12523697,15.6538462 C3.28329758,15.6538462 4.22886999,16.5866212 4.25011881,17.7520564 C4.27136763,18.9302986 3.33429474,19.9014946 2.16348485,19.9228395 Z" id="Path"></path>
                        <path d="M2.125,0 C2.9074034,0 3.54166667,0.637133241 3.54166667,1.42307692 L3.54166667,11.3846154 C3.54166667,12.1705591 2.9074034,12.8076923 2.125,12.8076923 C1.3425966,12.8076923 0.708333333,12.1705591 0.708333333,11.3846154 L0.708333333,1.42307692 C0.708333333,0.637133241 1.3425966,0 2.125,0 Z" id="Rectangle" fill-rule="nonzero"></path>
                    </g>
                </g>
                <g id="X⚙️/⚙️status-icon/-infomation-circle" transform="translate(134.000000, 399.500000) rotate(-12.000000) translate(-134.000000, -399.500000) translate(101.000000, 364.000000)">
                    <g id="infomation-circle">
                        <path d="M33,0 C14.8012174,0 0,14.6977124 0,32.7692308 C0,50.8407492 14.8012174,65.5384615 33,65.5384615 C51.195913,65.5384615 66,50.8407492 66,32.7692308 C66,14.6977124 51.195913,0 33,0 Z" id="Shape" fill="#669DB4"></path>
                        <g id="Group" transform="translate(22.956522, 11.516722)" fill="#FFFFFF">
                            <g id="Group-2">
                                <path d="M10.0434783,2.13712375 C12.4151739,2.13712375 14.3478261,4.05198662 14.3478261,6.41137124 C14.3478261,8.7750301 12.4151739,10.6856187 10.0434783,10.6856187 C7.66317391,10.6856187 5.73913043,8.7750301 5.73913043,6.41137124 C5.73913043,4.05198662 7.66317391,2.13712375 10.0434783,2.13712375 Z" id="Path"></path>
                                <path d="M18.226387,34.933874 C19.776796,34.933874 21.0959522,36.1111861 21.0959522,37.6408974 C21.0959522,39.1706087 19.776796,40.3479208 18.226387,40.3479208 L2.86956522,40.3479208 C1.31689151,40.3479208 0,39.1710066 0,37.6408974 C0,36.1107882 1.31689151,34.933874 2.86956522,34.933874 L7.26768077,34.933874 L7.26768077,21.2394564 L4.55669955,21.2394564 C3.00402584,21.2394564 1.68713433,20.0625422 1.68713433,18.532433 C1.68713433,17.0023238 3.00402584,15.8254096 4.55669955,15.8254096 L10.137246,15.8254096 C11.687655,15.8254096 13.0068112,17.0027216 13.0068112,18.532433 L13.0068112,34.933874 L18.226387,34.933874 Z" id="Path" fill-rule="nonzero"></path>
                            </g>
                        </g>
                    </g>
                </g>
                <g id="dokumenter/-blyant" transform="translate(478.000000, 60.000000)">
                    <g id="Group">
                        <path d="M43.8742237,18.5829079 L35.58225,10.2909342 C34.2173816,8.92606579 34.2173816,6.71303947 35.58225,5.34817105 L39.6319868,1.29843421 C40.9983026,-0.0664342105 43.2098816,-0.0664342105 44.57475,1.29843421 L52.8681711,9.59040789 C54.2315921,10.9552763 54.2315921,13.1683026 52.8681711,14.5331711 L48.8169868,18.5829079 C47.4521184,19.9477763 45.2390921,19.9477763 43.8742237,18.5829079" id="Fill-29" fill="#C5232A"></path>
                        <polygon id="Fill-30" fill="#E9D8BD" points="9.20381579 31.7280526 0.199736842 53.9654211 22.4385526 44.9627895 17.3886842 36.2510789"></polygon>
                        <polygon id="Fill-31" fill="#EEC85D" points="39.4727763 10.2810921 35.0611974 5.86951316 10.5355395 30.3966184 14.9471184 34.8081974"></polygon>
                        <polygon id="Fill-32" fill="#E2B954" points="19.3579737 39.2191974 43.8836316 14.6920921 39.4720526 10.2805132 14.9463947 34.8076184"></polygon>
                        <polygon id="Fill-33" fill="#EEC85D" points="43.8840658 14.6923816 19.3584079 39.2194868 23.7699868 43.6310658 48.2956447 19.1039605"></polygon>
                        <path d="M9.70272368,34.1138947 C10.5349605,34.9461316 12.1444342,34.4467895 13.2545658,35.5569211 C13.4340395,35.7363947 13.5527237,35.9231053 13.6381184,36.1156053 L14.9465395,34.8071842 L10.5349605,30.3970526 L9.31338158,31.6171842 C9.31338158,31.6171842 8.87048684,33.2816579 9.70272368,34.1138947" id="Fill-34" fill="#EEC85D"></path>
                        <path d="M13.6378289,36.1160395 C14.0836184,37.1161711 13.5365132,38.2798553 14.7103289,39.4551184 C15.8855921,40.6303816 17.0492763,40.0818289 18.0494079,40.5276184 L19.3578289,39.2191974 L14.94625,34.8076184 L13.6378289,36.1160395 Z" id="Fill-35" fill="#E2B954"></path>
                        <path d="M18.0491184,40.5273289 C18.2430658,40.6141711 18.4297763,40.7328553 18.60925,40.9123289 C19.7179342,42.0210132 19.2200395,43.6304868 20.0522763,44.4627237 C20.8845132,45.2949605 22.5489868,44.8506184 22.5489868,44.8506184 L23.7691184,43.6304868 L19.3575395,39.2189079 L18.0491184,40.5273289 Z" id="Fill-36" fill="#EEC85D"></path>
                        <polygon id="Fill-37" fill="#5C5B5A" points="0.200171053 53.9657105 8.06951316 50.7800526 3.38582895 46.0963684"></polygon>
                        <polygon id="Fill-38" fill="#5C5B5A" points="48.2955 19.1038158 35.0607632 5.86907895 36.8612895 4.07144737 50.0945789 17.3047368"></polygon>
                    </g>
                </g>
                <g id="Color/11-users/id-card-1" transform="translate(78.000000, 244.000000) rotate(-24.000000) translate(-78.000000, -244.000000) translate(54.000000, 220.000000)">
                    <g id="Group-30" transform="translate(0.000000, 8.000000)">
                        <path d="M47,0 L1,0 C0.448,0 0,0.448 0,1 L0,33 C0,33.552 0.448,34 1,34 L9,34 C9.552,34 10,33.552 10,33 L10,31.5 C10,30.122 11.122,29 12.5,29 C13.878,29 15,30.122 15,31.5 L15,33 C15,33.552 15.448,34 16,34 L32,34 C32.552,34 33,33.552 33,33 L33,31.5 C33,30.122 34.122,29 35.5,29 C36.878,29 38,30.122 38,31.5 L38,33 C38,33.552 38.448,34 39,34 L47,34 C47.552,34 48,33.552 48,33 L48,1 C48,0.448 47.552,0 47,0 Z" id="line/id-card-1" fill="#6AB889" fill-rule="nonzero"></path>
                        <ellipse id="Oval" fill="#E7E9E9" cx="12.0441176" cy="10" rx="4.04411765" ry="4"></ellipse>
                        <path d="M20.1764706,24 C20.1764706,19.581722 16.5552443,16 12.0882353,16 C7.62122629,16 4,19.581722 4,24 C4,24 19.6372549,24 20.1764706,24 Z" id="Oval" fill="#E7E9E9"></path>
                        <path d="M24.8181818,22 L41.1818182,22 C41.6336875,22 42,22.4477153 42,23 C42,23.5522847 41.6336875,24 41.1818182,24 L24.8181818,24 C24.3663125,24 24,23.5522847 24,23 C24,22.4477153 24.3663125,22 24.8181818,22 Z" id="Rectangle" fill="#3E3832"></path>
                        <path d="M24.8181818,18 L41.1818182,18 C41.6336875,18 42,18.4477153 42,19 C42,19.5522847 41.6336875,20 41.1818182,20 L24.8181818,20 C24.3663125,20 24,19.5522847 24,19 C24,18.4477153 24.3663125,18 24.8181818,18 Z" id="Rectangle" fill="#3E3832"></path>
                        <path d="M24.8181818,14 L41.1818182,14 C41.6336875,14 42,14.4477153 42,15 C42,15.5522847 41.6336875,16 41.1818182,16 L24.8181818,16 C24.3663125,16 24,15.5522847 24,15 C24,14.4477153 24.3663125,14 24.8181818,14 Z" id="Rectangle" fill="#3E3832"></path>
                        <path d="M24.8,8 L31.2,8 C31.6418278,8 32,8.44771525 32,9 C32,9.55228475 31.6418278,10 31.2,10 L24.8,10 C24.3581722,10 24,9.55228475 24,9 C24,8.44771525 24.3581722,8 24.8,8 Z" id="Rectangle" fill="#3E3832"></path>
                    </g>
                </g>
                <g id="dokumenter/-forstørrelsesglass" transform="translate(350.000000, 159.000000)">
                    <g id="Group">
                        <path d="M16,32 C7.163444,32 0,24.836556 0,16 C0,7.163444 7.163444,0 16,0 C24.836556,0 32,7.163444 32,16 C32,24.836556 24.836556,32 16,32 Z M16,29 C23.1797017,29 29,23.1797017 29,16 C29,8.82029825 23.1797017,3 16,3 C8.82029825,3 3,8.82029825 3,16 C3,23.1797017 8.82029825,29 16,29 Z" id="Shape" fill="#3E3832" fill-rule="nonzero"></path>
                        <path d="M26.5811971,25.5811971 C27.3561265,24.8062676 28.6125353,24.8062676 29.3874647,25.5811971 L43.4188029,39.6125353 C44.1937324,40.3874647 44.1937324,41.6438735 43.4188029,42.4188029 C42.6438735,43.1937324 41.3874647,43.1937324 40.6125353,42.4188029 L26.5811971,28.3874647 C25.8062676,27.6125353 25.8062676,26.3561265 26.5811971,25.5811971 Z" id="Rectangle" fill="#3E3832" fill-rule="nonzero"></path>
                        <circle id="Oval" fill="#C2EAF7" fill-rule="nonzero" opacity="0.495117188" cx="16" cy="16" r="13"></circle>
                        <path d="M12,24.3616618 C12.9359892,24.7192591 13.9427909,24.9137717 14.9914495,24.9137717 C19.9658759,24.9137717 23.9984454,20.5368828 23.9984454,15.1377167 C23.9984454,11.7431413 22.4044046,8.75266344 19.9844536,7 C23.4884313,8.33870442 26,11.9629769 26,16.2239451 C26,21.6231111 21.9674306,26 16.9930041,26 C15.1461099,26 13.429048,25.396658 12,24.3616618 Z" id="Path" fill="#FFFFFF" fill-rule="nonzero"></path>
                    </g>
                </g>
                <g id="Group-9" transform="translate(66.000000, 182.000000)">
                    <path d="M38,131 C47,125 65,100 51,75 C41.2812542,57.6450969 25.9649863,51.5029881 15,42 C-6.89448498e-14,29 -6,6 10,1 C21.3411883,-2.54412135 49,7 62,29 C75,51 60,66 67,84 C74,102 98,105 116,119 C134,133 142,154 133,169 C127,179 116.666667,181 102,175" id="Path-4" stroke="#8B5C1E" stroke-width="3"></path>
                    <path d="M62.6571429,119 C69.4739146,119 75,124.717445 75,131.77027 C75,135.869369 73.4761905,139.18018 70.4285714,141.702703 L56.7142857,154 C59.7619048,149.585586 61.2857143,145.801802 61.2857143,142.648649 C61.2857143,139.495495 59.7619048,136.027027 56.7142857,132.243243 L43,128.459459 C54.0630736,122.153153 60.6154546,119 62.6571429,119 Z" id="Path-Copy-12" fill="#3E3832"></path>
                    <path d="M45.8714286,124 C55.8835621,124 64,132.004423 64,141.878378 C64,147.617117 61.7619048,152.252252 57.2857143,155.783784 L37.1428571,173 C41.6190476,166.81982 43.8571429,161.522523 43.8571429,157.108108 C43.8571429,152.693694 41.6190476,147.837838 37.1428571,142.540541 L17,137.243243 C33.2488894,128.414414 42.8726989,124 45.8714286,124 Z" id="Path" fill="#59514B"></path>
                    <g id="dokumenter/-forstørrelsesglass-copy" transform="translate(3.000000, 136.000000)" fill-rule="nonzero">
                        <g id="Group">
                            <path d="M21.5,43 C9.62587788,43 0,33.3741221 0,21.5 C0,9.62587788 9.62587788,0 21.5,0 C33.3741221,0 43,9.62587788 43,21.5 C43,33.3741221 33.3741221,43 21.5,43 Z M21.5,38.96875 C31.1477242,38.96875 38.96875,31.1477242 38.96875,21.5 C38.96875,11.8522758 31.1477242,4.03125 21.5,4.03125 C11.8522758,4.03125 4.03125,11.8522758 4.03125,21.5 C4.03125,31.1477242 11.8522758,38.96875 21.5,38.96875 Z" id="Shape" fill="#3E3832"></path>
                            <circle id="Oval" fill="#C2EAF7" opacity="0.495117188" cx="21.5" cy="21.5" r="17.46875"></circle>
                            <path d="M16.125,32.7359831 C17.3827355,33.2165044 18.7356252,33.4778807 20.1447602,33.4778807 C26.8291458,33.4778807 32.2479109,27.5964363 32.2479109,20.3413069 C32.2479109,15.7798461 30.1059187,11.7613915 26.8541095,9.40625 C31.5625796,11.2051341 34.9375,16.0752502 34.9375,21.8009262 C34.9375,29.0560556 29.5187348,34.9375 22.8343493,34.9375 C20.3525851,34.9375 18.0452833,34.1267592 16.125,32.7359831 Z" id="Path" fill="#FFFFFF"></path>
                        </g>
                    </g>
                    <polygon id="Rectangle" fill="#3E3832" points="62.8709677 136 88 142.538462 74.7741935 153 47 145.153846"></polygon>
                    <polygon id="Rectangle-Copy-21" fill="#3E3832" points="47 145 87 149.090909 68.3333333 160 47 154.545455"></polygon>
                    <g id="Group-8" transform="translate(86.957710, 166.809111) rotate(-10.000000) translate(-86.957710, -166.809111) translate(50.957710, 136.309111)">
                        <path d="M59.4984802,0 C66.2971223,0 71.8085106,5.66299289 71.8085106,12.6486486 C71.8085106,16.7087087 70.2887538,19.987988 67.2492401,22.4864865 L53.5714286,34.6666667 C56.6109422,30.2942943 58.1306991,26.5465465 58.1306991,23.4234234 C58.1306991,20.3003003 56.6109422,16.8648649 53.5714286,13.1171171 L39.893617,9.36936937 C50.9272676,3.12312312 57.462222,0 59.4984802,0 Z" id="Path-Copy-13" fill="#3E3832"></path>
                        <path d="M43.2180851,5.33333333 C53.1327714,5.33333333 61.1702128,13.3922078 61.1702128,23.3333333 C61.1702128,29.1111111 58.9539007,33.7777778 54.5212766,37.3333333 L34.5744681,54.6666667 C39.0070922,48.4444444 41.2234043,43.1111111 41.2234043,38.6666667 C41.2234043,34.2222222 39.0070922,29.3333333 34.5744681,24 L14.6276596,18.6666667 C30.7184,9.77777778 40.2485418,5.33333333 43.2180851,5.33333333 Z" id="Path-Copy-14" fill="#59514B"></path>
                        <g id="dokumenter/-forstørrelsesglass-copy-3" transform="translate(0.000000, 17.333333)" fill-rule="nonzero">
                            <g id="Group">
                                <path d="M21.2765957,42.6666667 C9.52585639,42.6666667 0,33.115408 0,21.3333333 C0,9.55125867 9.52585639,0 21.2765957,0 C33.0273351,0 42.5531915,9.55125867 42.5531915,21.3333333 C42.5531915,33.115408 33.0273351,42.6666667 21.2765957,42.6666667 Z M21.2765957,38.6666667 C30.8240715,38.6666667 38.5638298,30.906269 38.5638298,21.3333333 C38.5638298,11.7603977 30.8240715,4 21.2765957,4 C11.72912,4 3.9893617,11.7603977 3.9893617,21.3333333 C3.9893617,30.906269 11.72912,38.6666667 21.2765957,38.6666667 Z" id="Shape" fill="#3E3832"></path>
                                <ellipse id="Oval" fill="#C2EAF7" opacity="0.495117188" cx="21.2765957" cy="21.3333333" rx="17.287234" ry="17.3333333"></ellipse>
                                <path d="M15.9574468,32.4822157 C17.2021133,32.9590121 18.5409453,33.2183622 19.9354381,33.2183622 C26.5503669,33.2183622 31.9128263,27.3825104 31.9128263,20.1836223 C31.9128263,15.6575218 29.7930913,11.6702179 26.5750712,9.33333333 C31.2346161,11.1182726 34.5744681,15.9506359 34.5744681,21.6319268 C34.5744681,28.8308148 29.2120087,34.6666667 22.5970799,34.6666667 C20.1411035,34.6666667 17.8577766,33.8622107 15.9574468,32.4822157 Z" id="Path" fill="#FFFFFF"></path>
                            </g>
                        </g>
                        <circle id="Oval" fill="#78706A" cx="10.6355115" cy="11.2384028" r="4"></circle>
                    </g>
                </g>
            </g>
        </g>
    </g>
</svg>
